# xmcd CD database file
#
# Track frame offsets:
#	150
#	23367
#	46419
#	67188
#	87370
#	102252
#	121785
#	135515
#	150355
#	167269
#	186868
#	199828
#	219688
#	231768
#	261837
#	274852
#	287837
#
# Disc length: 4013 seconds
#
# Revision: 0
# Processed by: cddbd v1.5.2PL0 Copyright (c) Steve Scherf et al.
# Submitted via: CDex 1.51
#
DISCID=ea0fab11
DTITLE=Cream - Studio Recordings (1970)
DYEAR=1970
DGENRE=Blues
TTITLE0=White room
TTITLE1=Sitting on the top of the world
TTITLE2=Passing the time
TTITLE3=As you said
TTITLE4=Pressed rat and warthog
TTITLE5=Politician
TTITLE6=Those were the days
TTITLE7=Born under a bad sign
TTITLE8=Deserted cities of the heart
TTITLE9=Sunshine of your love
TTITLE10=Badge
TTITLE11=Crossroads
TTITLE12=Swlabr
TTITLE13=Spoonful
TTITLE14=Tales of brave Ulisses
TTITLE15=Strange brew
TTITLE16=I feel free
EXTD=YEAR: 1970
EXTT0=
EXTT1=
EXTT2=
EXTT3=
EXTT4=
EXTT5=
EXTT6=
EXTT7=
EXTT8=
EXTT9=
EXTT10=
EXTT11=
EXTT12=
EXTT13=
EXTT14=
EXTT15=
EXTT16=
PLAYORDER=
